<svg width="960" height="620" viewBox="0 0 960 620" fill="none" xmlns="http://www.w3.org/2000/svg">
  <rect width="960" height="620" rx="44" fill="#F8FAFC"/>
  <rect x="78" y="76" width="804" height="468" rx="30" fill="#FFFFFF" stroke="#D6D3D1" stroke-width="2"/>
  <rect x="128" y="126" width="304" height="354" rx="22" fill="#0F172A"/>
  <rect x="466" y="126" width="366" height="74" rx="18" fill="#DBEAFE"/>
  <rect x="466" y="226" width="252" height="22" rx="11" fill="#CBD5E1"/>
  <rect x="466" y="268" width="316" height="22" rx="11" fill="#CBD5E1"/>
  <rect x="466" y="310" width="286" height="22" rx="11" fill="#CBD5E1"/>
  <rect x="466" y="376" width="166" height="52" rx="26" fill="#2563EB"/>
  <rect x="154" y="156" width="190" height="22" rx="11" fill="#BFDBFE"/>
  <rect x="154" y="216" width="228" height="22" rx="11" fill="#FFFFFF" fill-opacity="0.82"/>
  <rect x="154" y="258" width="182" height="22" rx="11" fill="#FFFFFF" fill-opacity="0.82"/>
  <rect x="154" y="300" width="222" height="22" rx="11" fill="#FFFFFF" fill-opacity="0.82"/>
  <circle cx="352" cy="408" r="46" fill="#60A5FA"/>
  <path d="M338 410L350 422L372 392" stroke="white" stroke-width="10" stroke-linecap="round" stroke-linejoin="round"/>
  <path d="M156 512C214 474 272 472 330 512" stroke="#94A3B8" stroke-width="12" stroke-linecap="round"/>
  <path d="M622 512C680 474 738 472 796 512" stroke="#94A3B8" stroke-width="12" stroke-linecap="round"/>
</svg>
